<svg width="30" height="30" viewBox="0 0 30 30" fill="none" xmlns="http://www.w3.org/2000/svg">
<circle cx="15" cy="15" r="15" fill="#1874CA"/>
<mask id="mask0_326_2240" style="mask-type:alpha" maskUnits="userSpaceOnUse" x="3" y="3" width="24" height="24">
<rect x="3" y="3" width="24" height="24" fill="#D9D9D9"/>
</mask>
<g mask="url(#mask0_326_2240)">
<path d="M9.75 25C9 25 8.35417 24.7458 7.8125 24.2375C7.27083 23.7292 7 23.1 7 22.35V8.4C7 7.76667 7.19583 7.2 7.5875 6.7C7.97917 6.2 8.49167 5.88334 9.125 5.75L19 3.8V19.8L9.525 21.7C9.375 21.7333 9.25 21.8125 9.15 21.9375C9.05 22.0625 9 22.2 9 22.35C9 22.5333 9.075 22.6875 9.225 22.8125C9.375 22.9375 9.55 23 9.75 23H21V7H23V25H9.75ZM10 19.575L12 19.175V7.225L10 7.625V19.575Z" fill="white"/>
</g>
</svg>
