<svg width="60" height="60" viewBox="0 0 60 60" fill="none" xmlns="http://www.w3.org/2000/svg">
<rect x="3.5" y="3.5" width="53" height="53" rx="5.5" stroke="#0680CD" stroke-width="3"/>
<path d="M29.8115 10C27.3974 10 25.0822 10.959 23.3752 12.666C21.6682 14.373 20.7092 16.6883 20.7092 19.1024C20.7092 21.5165 21.6682 23.8317 23.3752 25.5387C25.0822 27.2457 27.3974 28.2047 29.8115 28.2047C32.2256 28.2047 34.5409 27.2457 36.2479 25.5387C37.9549 23.8317 38.9139 21.5165 38.9139 19.1024C38.9139 16.6883 37.9549 14.373 36.2479 12.666C34.5409 10.959 32.2256 10 29.8115 10ZM20.1024 33.0593C17.6883 33.0593 15.373 34.0183 13.666 35.7253C11.959 37.4323 11 39.7476 11 42.1617V45.0453C11 46.8755 12.3253 48.4338 14.1312 48.7275C24.5152 50.4242 35.1079 50.4242 45.4919 48.7275C46.3659 48.5852 47.1608 48.1366 47.7344 47.462C48.3081 46.7874 48.6231 45.9308 48.6231 45.0453V42.1617C48.6231 39.7476 47.6641 37.4323 45.9571 35.7253C44.25 34.0183 41.9348 33.0593 39.5207 33.0593H38.6954C38.2464 33.0593 37.7998 33.1321 37.375 33.2681L35.2729 33.955C31.7241 35.1134 27.8989 35.1134 24.3501 33.955L22.2481 33.2681C21.8225 33.1295 21.3777 33.0591 20.9301 33.0593H20.1024Z" fill="#0680CD"/>
</svg>
